<svg width="40" height="40" viewBox="0 0 40 40" fill="none" xmlns="http://www.w3.org/2000/svg">
<path d="M0 10C0 4.47715 4.47715 0 10 0H30C35.5228 0 40 4.47715 40 10V30C40 35.5228 35.5228 40 30 40H10C4.47715 40 0 35.5228 0 30V10Z" fill="white" fill-opacity="0.1"/>
<path d="M24.9987 11.668H22.4987C21.3936 11.668 20.3338 12.107 19.5524 12.8884C18.771 13.6698 18.332 14.7296 18.332 15.8346V18.3346H15.832V21.668H18.332V28.3346H21.6654V21.668H24.1654L24.9987 18.3346H21.6654V15.8346C21.6654 15.6136 21.7532 15.4017 21.9094 15.2454C22.0657 15.0891 22.2777 15.0013 22.4987 15.0013H24.9987V11.668Z" stroke="white" stroke-width="1.66667" stroke-linecap="round" stroke-linejoin="round"/>
</svg>
