<svg width="28" height="28" viewBox="0 0 28 28" fill="none" xmlns="http://www.w3.org/2000/svg">
<path d="M2.33203 11.0833C2.33206 9.78516 2.72585 8.51757 3.46141 7.44794C4.19696 6.37831 5.23967 5.55696 6.45182 5.09237C7.66397 4.62778 8.98854 4.54181 10.2506 4.84581C11.5126 5.14982 12.6527 5.82949 13.5204 6.79507C13.5815 6.86041 13.6554 6.9125 13.7375 6.94812C13.8195 6.98373 13.908 7.00211 13.9975 7.00211C14.087 7.00211 14.1755 6.98373 14.2576 6.94812C14.3396 6.9125 14.4135 6.86041 14.4746 6.79507C15.3396 5.82321 16.48 5.13783 17.744 4.83013C19.0081 4.52244 20.3359 4.60703 21.5508 5.07264C22.7656 5.53825 23.8098 6.3628 24.5444 7.43655C25.279 8.5103 25.6692 9.78232 25.663 11.0833C25.663 13.7547 23.9132 15.7495 22.1634 17.4993L15.7567 23.6972C15.5393 23.9468 15.2713 24.1474 14.9705 24.2855C14.6696 24.4236 14.3429 24.4961 14.0118 24.4982C13.6808 24.5003 13.3532 24.4319 13.0506 24.2976C12.7481 24.1634 12.4775 23.9662 12.257 23.7193L5.83168 17.4993C4.08185 15.7495 2.33203 13.7664 2.33203 11.0833Z" stroke="#13B093" stroke-width="2.3331" stroke-linecap="round" stroke-linejoin="round"/>
</svg>
