<svg width="40" height="40" viewBox="0 0 40 40" fill="none" xmlns="http://www.w3.org/2000/svg">
<path d="M0 10C0 4.47715 4.47715 0 10 0H30C35.5228 0 40 4.47715 40 10V30C40 35.5228 35.5228 40 30 40H10C4.47715 40 0 35.5228 0 30V10Z" fill="white" fill-opacity="0.1"/>
<path d="M24.168 11.668H15.8346C13.5334 11.668 11.668 13.5334 11.668 15.8346V24.168C11.668 26.4692 13.5334 28.3346 15.8346 28.3346H24.168C26.4692 28.3346 28.3346 26.4692 28.3346 24.168V15.8346C28.3346 13.5334 26.4692 11.668 24.168 11.668Z" stroke="white" stroke-width="1.66667" stroke-linecap="round" stroke-linejoin="round"/>
<path d="M23.3337 19.4733C23.4366 20.1668 23.3181 20.8751 22.9952 21.4975C22.6723 22.1198 22.1614 22.6245 21.5351 22.9397C20.9088 23.2549 20.1991 23.3646 19.5069 23.2532C18.8147 23.1419 18.1752 22.815 17.6794 22.3193C17.1837 21.8235 16.8569 21.184 16.7455 20.4918C16.6341 19.7996 16.7438 19.0899 17.059 18.4636C17.3742 17.8373 17.8789 17.3264 18.5012 17.0035C19.1236 16.6806 19.8319 16.5621 20.5254 16.665C21.2328 16.7699 21.8878 17.0995 22.3935 17.6052C22.8992 18.1109 23.2288 18.7659 23.3337 19.4733Z" stroke="white" stroke-width="1.66667" stroke-linecap="round" stroke-linejoin="round"/>
<path d="M24.582 15.418H24.5904" stroke="white" stroke-width="1.66667" stroke-linecap="round" stroke-linejoin="round"/>
</svg>
