<svg width="28" height="28" viewBox="0 0 28 28" fill="none" xmlns="http://www.w3.org/2000/svg">
<path d="M18.6637 24.4993V22.1662C18.6637 20.9286 18.1721 19.7418 17.297 18.8667C16.4219 17.9916 15.2351 17.5 13.9975 17.5H6.99822C5.76067 17.5 4.57381 17.9916 3.69873 18.8667C2.82365 19.7418 2.33203 20.9286 2.33203 22.1662V24.4993" stroke="#13B093" stroke-width="2.3331" stroke-linecap="round" stroke-linejoin="round"/>
<path d="M18.6641 3.64844C19.6647 3.90784 20.5508 4.49216 21.1834 5.30968C21.816 6.12719 22.1593 7.13162 22.1593 8.16531C22.1593 9.199 21.816 10.2034 21.1834 11.0209C20.5508 11.8385 19.6647 12.4228 18.6641 12.6822" stroke="#13B093" stroke-width="2.3331" stroke-linecap="round" stroke-linejoin="round"/>
<path d="M25.6637 24.4961V22.163C25.6629 21.1291 25.3188 20.1248 24.6854 19.3076C24.052 18.4905 23.1651 17.9069 22.1641 17.6484" stroke="#13B093" stroke-width="2.3331" stroke-linecap="round" stroke-linejoin="round"/>
<path d="M10.4982 12.8324C13.0753 12.8324 15.1644 10.7433 15.1644 8.16619C15.1644 5.58913 13.0753 3.5 10.4982 3.5C7.92116 3.5 5.83203 5.58913 5.83203 8.16619C5.83203 10.7433 7.92116 12.8324 10.4982 12.8324Z" stroke="#13B093" stroke-width="2.3331" stroke-linecap="round" stroke-linejoin="round"/>
</svg>
