<svg width="20" height="20" viewBox="0 0 20 20" fill="none" xmlns="http://www.w3.org/2000/svg">
<path d="M11.528 13.808C11.7001 13.887 11.894 13.9051 12.0777 13.8592C12.2615 13.8133 12.4241 13.7062 12.5388 13.5555L12.8346 13.168C12.9899 12.961 13.1912 12.793 13.4226 12.6773C13.654 12.5615 13.9092 12.5013 14.168 12.5013H16.668C17.11 12.5013 17.5339 12.6769 17.8465 12.9895C18.159 13.302 18.3346 13.7259 18.3346 14.168V16.668C18.3346 17.11 18.159 17.5339 17.8465 17.8465C17.5339 18.159 17.11 18.3346 16.668 18.3346C12.6897 18.3346 8.87441 16.7543 6.06137 13.9412C3.24832 11.1282 1.66797 7.31288 1.66797 3.33464C1.66797 2.89261 1.84356 2.46868 2.15612 2.15612C2.46868 1.84356 2.89261 1.66797 3.33464 1.66797H5.83464C6.27666 1.66797 6.70059 1.84356 7.01315 2.15612C7.32571 2.46868 7.5013 2.89261 7.5013 3.33464V5.83464C7.5013 6.09338 7.44106 6.34857 7.32535 6.57999C7.20963 6.81142 7.04163 7.01272 6.83464 7.16797L6.44464 7.46047C6.29165 7.57728 6.18382 7.74346 6.13946 7.93076C6.0951 8.11806 6.11695 8.31495 6.2013 8.48797C7.3402 10.8012 9.21332 12.672 11.528 13.808Z" stroke="#13B093" stroke-width="1.66667" stroke-linecap="round" stroke-linejoin="round"/>
</svg>
