<svg width="28" height="28" viewBox="0 0 28 28" fill="none" xmlns="http://www.w3.org/2000/svg">
<path d="M13.9975 25.663C20.4402 25.663 25.663 20.4402 25.663 13.9975C25.663 7.55485 20.4402 2.33203 13.9975 2.33203C7.55485 2.33203 2.33203 7.55485 2.33203 13.9975C2.33203 20.4402 7.55485 25.663 13.9975 25.663Z" stroke="#13B093" stroke-width="2.3331" stroke-linecap="round" stroke-linejoin="round"/>
<path d="M13.9993 20.9986C17.8649 20.9986 20.9986 17.8649 20.9986 13.9993C20.9986 10.1337 17.8649 7 13.9993 7C10.1337 7 7 10.1337 7 13.9993C7 17.8649 10.1337 20.9986 13.9993 20.9986Z" stroke="#13B093" stroke-width="2.3331" stroke-linecap="round" stroke-linejoin="round"/>
<path d="M13.9972 16.3303C15.2857 16.3303 16.3303 15.2857 16.3303 13.9972C16.3303 12.7086 15.2857 11.6641 13.9972 11.6641C12.7086 11.6641 11.6641 12.7086 11.6641 13.9972C11.6641 15.2857 12.7086 16.3303 13.9972 16.3303Z" stroke="#13B093" stroke-width="2.3331" stroke-linecap="round" stroke-linejoin="round"/>
</svg>
