<svg width="40" height="40" viewBox="0 0 40 40" fill="none" xmlns="http://www.w3.org/2000/svg">
<path d="M0 10C0 4.47715 4.47715 0 10 0H30C35.5228 0 40 4.47715 40 10V30C40 35.5228 35.5228 40 30 40H10C4.47715 40 0 35.5228 0 30V10Z" fill="white" fill-opacity="0.1"/>
<path d="M12.085 24.1686C11.5029 21.4213 11.5029 18.5826 12.085 15.8353C12.1615 15.5563 12.3093 15.302 12.5139 15.0975C12.7184 14.8929 12.9727 14.7451 13.2517 14.6686C17.7213 13.9282 22.2822 13.9282 26.7517 14.6686C27.0307 14.7451 27.285 14.8929 27.4895 15.0975C27.6941 15.302 27.8419 15.5563 27.9184 15.8353C28.5005 18.5826 28.5005 21.4213 27.9184 24.1686C27.8419 24.4476 27.6941 24.7019 27.4895 24.9064C27.285 25.111 27.0307 25.2588 26.7517 25.3353C22.2822 26.0759 17.7212 26.0759 13.2517 25.3353C12.9727 25.2588 12.7184 25.111 12.5139 24.9064C12.3093 24.7019 12.1615 24.4476 12.085 24.1686Z" stroke="white" stroke-width="1.66667" stroke-linecap="round" stroke-linejoin="round"/>
<path d="M18.332 22.5L22.4987 20L18.332 17.5V22.5Z" stroke="white" stroke-width="1.66667" stroke-linecap="round" stroke-linejoin="round"/>
</svg>
